<svg width="196" height="128" viewBox="0 0 196 128" fill="none" xmlns="http://www.w3.org/2000/svg">
<circle cx="98" cy="64" r="64" fill="#C7D2FE"/>
<path d="M32 63.5C32 64.8807 30.8807 66 29.5 66C28.1193 66 27 64.8807 27 63.5C27 62.1193 28.1193 61 29.5 61C30.8807 61 32 62.1193 32 63.5Z" fill="#C7D2FE"/>
<path d="M173 79C173 80.6569 171.657 82 170 82C168.343 82 167 80.6569 167 79C167 77.3431 168.343 76 170 76C171.657 76 173 77.3431 173 79Z" fill="#C7D2FE"/>
<path d="M38 24C38 25.6569 36.6569 27 35 27C33.3431 27 32 25.6569 32 24C32 22.3431 33.3431 21 35 21C36.6569 21 38 22.3431 38 24Z" fill="#C7D2FE"/>
<path d="M26 97C26 100.314 23.3137 103 20 103C16.6863 103 14 100.314 14 97C14 93.6863 16.6863 91 20 91C23.3137 91 26 93.6863 26 97Z" fill="#C7D2FE"/>
<path d="M175 29C175 31.7614 172.761 34 170 34C167.239 34 165 31.7614 165 29C165 26.2386 167.239 24 170 24C172.761 24 175 26.2386 175 29Z" fill="#C7D2FE"/>
<path d="M181 103C181 106.314 178.314 109 175 109C171.686 109 169 106.314 169 103C169 99.6863 171.686 97 175 97C178.314 97 181 99.6863 181 103Z" fill="#C7D2FE"/>
<path d="M105.003 127.943H94.1911V80.1895H105.003V127.943Z" fill="#A6B5FD"/>
<path d="M141.043 80.1896V53.6099C141.043 41.916 131.564 32.4363 119.87 32.4363H77.973V80.1896H98.6961H141.043Z" fill="url(#paint0_linear_1241_3295)"/>
<path d="M57.2498 53.6099C57.2498 41.916 66.7296 32.4363 78.4235 32.4363C90.1174 32.4363 99.5971 41.916 99.5971 53.6099V80.1896H57.2498V53.6099Z" fill="#EFF8FE"/>
<path d="M68.9629 51.8077C68.9629 46.5828 73.1986 42.3472 78.4235 42.3472C83.6484 42.3472 87.8841 46.5828 87.8841 51.8077V52.2582H68.9629V51.8077Z" fill="#828DF9"/>
<path d="M127.528 0L129.33 27.0302L115.815 19.3716L106.355 26.5797L108.607 17.1191L124.375 3.15352L106.329 14.85L95.0921 7.65855L127.528 0Z" fill="#828DF9"/>
<path fill-rule="evenodd" clip-rule="evenodd" d="M143.129 63.1377C143.351 62.838 143.775 62.7755 144.074 62.998C145.431 64.0054 146.665 65.0974 147.716 66.277C147.965 66.5556 147.94 66.9827 147.662 67.2311C147.383 67.4795 146.956 67.455 146.708 67.1764C145.728 66.0782 144.566 65.0468 143.268 64.0831C142.969 63.8606 142.906 63.4373 143.129 63.1377ZM149.539 70.0843C149.882 69.9381 150.279 70.098 150.425 70.4414C150.755 71.2165 151.006 72.0205 151.167 72.8531C151.348 73.7865 151.447 74.6782 151.463 75.5303C151.47 75.9035 151.173 76.2118 150.8 76.2189C150.427 76.2261 150.119 75.9294 150.112 75.5562C150.097 74.7901 150.008 73.976 149.841 73.1099C149.698 72.3758 149.476 71.663 149.182 70.9707C149.035 70.6273 149.195 70.2304 149.539 70.0843ZM149.975 79.9198C150.303 80.0978 150.425 80.5079 150.247 80.836C149.411 82.3782 148.165 83.6875 146.567 84.8078C146.261 85.022 145.84 84.9479 145.625 84.6423C145.411 84.3367 145.485 83.9153 145.791 83.7011C147.253 82.6759 148.341 81.5151 149.059 80.1917C149.237 79.8636 149.647 79.7419 149.975 79.9198ZM142.241 86.3727C142.377 86.7204 142.205 87.1123 141.858 87.2481C140.35 87.8372 138.679 88.3576 136.859 88.8227C136.497 88.9151 136.129 88.6969 136.037 88.3353C135.945 87.9737 136.163 87.6057 136.524 87.5133C138.304 87.0585 139.92 86.554 141.366 85.9892C141.714 85.8534 142.106 86.0251 142.241 86.3727ZM132.32 89.1333C132.387 89.5004 132.144 89.8525 131.777 89.9196C130.158 90.2158 128.451 90.4859 126.659 90.7359C126.29 90.7874 125.948 90.5296 125.897 90.16C125.845 89.7903 126.103 89.4489 126.473 89.3973C128.249 89.1495 129.937 88.8823 131.534 88.5902C131.901 88.523 132.253 88.7662 132.32 89.1333ZM122.12 90.6301C122.161 91.001 121.895 91.3354 121.524 91.377C119.867 91.563 118.151 91.7383 116.378 91.9064C116.007 91.9416 115.677 91.669 115.642 91.2975C115.606 90.9259 115.879 90.5962 116.251 90.5609C118.017 90.3934 119.725 90.2189 121.373 90.034C121.744 89.9924 122.078 90.2593 122.12 90.6301ZM111.85 91.6345C111.881 92.0064 111.605 92.3332 111.233 92.3645C110.387 92.4358 109.53 92.5062 108.662 92.5762C107.858 92.6411 107.073 92.7178 106.308 92.8058C105.937 92.8484 105.602 92.5824 105.56 92.2116C105.517 91.8409 105.783 91.5057 106.154 91.4631C106.935 91.3734 107.734 91.2951 108.553 91.2291C109.42 91.1592 110.276 91.0889 111.12 91.0178C111.492 90.9865 111.819 91.2626 111.85 91.6345ZM102.183 92.7267C102.254 93.0931 102.014 93.4476 101.648 93.5186C100.023 93.833 98.5014 94.2018 97.0763 94.6151C96.7179 94.7191 96.343 94.5128 96.2391 94.1544C96.1351 93.796 96.3414 93.4211 96.6998 93.3171C98.1656 92.8919 99.7277 92.5137 101.391 92.1917C101.757 92.1207 102.112 92.3603 102.183 92.7267ZM93.0159 95.2747C93.1582 95.6197 92.994 96.0148 92.649 96.1572C91.1092 96.7926 89.7155 97.4826 88.4573 98.2076C88.1339 98.394 87.7207 98.2829 87.5344 97.9595C87.3481 97.6362 87.4592 97.223 87.7825 97.0366C89.0935 96.2812 90.5405 95.5652 92.1334 94.9079C92.4784 94.7655 92.8735 94.9298 93.0159 95.2747ZM84.7161 99.8833C84.9515 100.173 84.9076 100.599 84.6181 100.834C83.2967 101.908 82.2075 103.007 81.3226 104.08C81.0851 104.368 80.6592 104.409 80.3713 104.172C80.0834 103.934 80.0424 103.508 80.2799 103.22C81.223 102.077 82.3761 100.915 83.7655 99.7853C84.0551 99.5499 84.4807 99.5938 84.7161 99.8833ZM78.5391 107.048C78.8802 107.199 79.0338 107.599 78.8823 107.94C78.6512 108.46 78.4744 108.949 78.3456 109.399C78.2428 109.758 77.8885 109.996 77.5225 109.923C77.1565 109.85 76.9175 109.493 77.0165 109.133C77.1668 108.587 77.3756 108.002 77.6472 107.391C77.7987 107.05 78.198 106.896 78.5391 107.048Z" fill="#828DF9"/>
<path d="M105.331 29.7886C104.955 30.0947 104.543 30.4508 104.099 30.8568C103.824 31.1086 103.396 31.0895 103.144 30.8141C102.893 30.5387 102.912 30.1112 103.187 29.8594C103.661 29.4259 104.105 29.0428 104.514 28.7113C104.804 28.4762 105.228 28.5348 105.454 28.8322C105.679 29.1295 105.621 29.5529 105.331 29.7886Z" fill="#828DF9"/>
<path d="M100.775 33.2374C101.053 33.4862 101.077 33.9134 100.828 34.1916C99.8754 35.2572 98.8677 36.4642 97.8329 37.8093C97.6054 38.1051 97.1811 38.1604 96.8853 37.9328C96.5895 37.7053 96.5342 37.281 96.7617 36.9852C97.8167 35.6139 98.8456 34.3812 99.8207 33.2907C100.069 33.0125 100.497 32.9887 100.775 33.2374Z" fill="#828DF9"/>
<path d="M94.9084 40.687C95.2184 40.8948 95.3012 41.3146 95.0934 41.6246C94.2588 42.8694 93.4227 44.1975 92.5984 45.6073C92.41 45.9295 91.9961 46.038 91.6739 45.8496C91.3517 45.6612 91.2433 45.2473 91.4317 44.9252C92.2703 43.4909 93.1212 42.1393 93.9708 40.872C94.1786 40.562 94.5984 40.4792 94.9084 40.687Z" fill="#828DF9"/>
<path d="M90.0507 48.8278C90.3836 48.9965 90.5166 49.4032 90.3479 49.7361C89.6367 51.1388 88.9773 52.5407 88.3464 53.992C88.1977 54.3343 87.7996 54.4912 87.4573 54.3424C87.115 54.1936 86.9582 53.7955 87.107 53.4533C87.6859 52.1213 87.8391 51.7128 87.8402 51.6556C87.842 51.5606 87.4237 52.4355 87.8402 51.6556C88.0389 51.2836 88.4276 50.535 89.1424 49.125C89.3112 48.7921 89.7178 48.659 90.0507 48.8278Z" fill="#828DF9"/>
<path d="M57.5439 57.4143C57.7525 57.7238 57.6707 58.1438 57.3612 58.3524C55.7681 59.4261 54.2615 60.5859 52.9063 61.8266C52.631 62.0786 52.2036 62.0598 51.9515 61.7845C51.6995 61.5092 51.7184 61.0818 51.9936 60.8298C53.4063 59.5365 54.9673 58.3359 56.6059 57.2316C56.9154 57.023 57.3354 57.1049 57.5439 57.4143Z" fill="#828DF9"/>
<path d="M86.1976 57.4911C86.548 57.6195 86.728 58.0077 86.5996 58.3581C86.3326 59.0869 86.0732 59.8279 85.8221 60.5811C85.5364 61.4383 85.2229 62.2806 84.8839 63.1072C84.7423 63.4525 84.3476 63.6176 84.0023 63.476C83.657 63.3344 83.4919 62.9397 83.6335 62.5944C83.9611 61.7954 84.264 60.9815 84.54 60.1537C84.7953 59.3878 85.0591 58.6343 85.3306 57.8932C85.459 57.5428 85.8471 57.3628 86.1976 57.4911Z" fill="#828DF9"/>
<path d="M49.0274 65.0729C49.3352 65.2839 49.4136 65.7046 49.2025 66.0124C48.1232 67.5862 47.3261 69.2457 46.8915 70.9853C46.801 71.3473 46.4342 71.5675 46.0721 71.4771C45.71 71.3866 45.4898 71.0198 45.5803 70.6577C46.0604 68.736 46.9341 66.9305 48.0879 65.248C48.299 64.9402 48.7196 64.8618 49.0274 65.0729Z" fill="#828DF9"/>
<path d="M82.2696 67.0184C82.5936 67.2036 82.7061 67.6164 82.5209 67.9404C81.6189 69.5183 80.6262 71.0187 79.5631 72.4323C79.3387 72.7306 78.9151 72.7905 78.6168 72.5662C78.3186 72.3419 78.2586 71.9182 78.4829 71.6199C79.513 70.2504 80.4744 68.7972 81.3476 67.2697C81.5328 66.9457 81.9456 66.8332 82.2696 67.0184Z" fill="#828DF9"/>
<path d="M76.0564 75.5627C76.3244 75.8225 76.3311 76.2503 76.0713 76.5183C74.792 77.8381 73.4541 79.0469 72.0828 80.1325C71.7901 80.3641 71.3652 80.3147 71.1335 80.022C70.9019 79.7294 70.9513 79.3044 71.2439 79.0728C72.5681 78.0245 73.8621 76.8557 75.1009 75.5776C75.3606 75.3097 75.7884 75.303 76.0564 75.5627Z" fill="#828DF9"/>
<path d="M45.9542 75.8628C46.3208 75.793 46.6746 76.0337 46.7443 76.4003C46.9077 77.2594 47.162 78.1396 47.517 79.0408C47.8445 79.872 48.233 80.6078 48.6735 81.2542C48.8837 81.5626 48.804 81.983 48.4956 82.1931C48.1872 82.4033 47.7668 82.3237 47.5567 82.0153C47.0554 81.2797 46.621 80.4538 46.2596 79.5362C45.8751 78.5601 45.5966 77.5987 45.4166 76.6529C45.3469 76.2863 45.5876 75.9325 45.9542 75.8628Z" fill="#828DF9"/>
<path d="M67.8734 82.2421C68.0588 82.5659 67.9467 82.9788 67.6228 83.1643C65.982 84.104 64.3282 84.8628 62.7004 85.4198C62.3473 85.5407 61.9631 85.3524 61.8422 84.9993C61.7214 84.6462 61.9097 84.262 62.2628 84.1411C63.8013 83.6147 65.3769 82.893 66.9511 81.9915C67.275 81.806 67.6879 81.9182 67.8734 82.2421Z" fill="#828DF9"/>
<path d="M51.5052 84.7123C51.6534 84.3698 52.0513 84.2123 52.3938 84.3605C53.83 84.9821 55.4775 85.2413 57.2711 85.1544C57.6439 85.1363 57.9607 85.4239 57.9788 85.7967C57.9969 86.1694 57.7093 86.4863 57.3366 86.5043C55.375 86.5994 53.5154 86.3186 51.857 85.6008C51.5145 85.4526 51.357 85.0548 51.5052 84.7123Z" fill="#828DF9"/>
<defs>
<linearGradient id="paint0_linear_1241_3295" x1="109.508" y1="32.4363" x2="109.508" y2="80.1896" gradientUnits="userSpaceOnUse">
<stop stop-color="#BEDAFD"/>
<stop offset="1" stop-color="#6265F0"/>
</linearGradient>
</defs>
</svg>
