<svg width="196" height="130" viewBox="0 0 196 130" fill="none" xmlns="http://www.w3.org/2000/svg">
<circle cx="98" cy="64" r="64" fill="#C7D2FE"/>
<path d="M32 63.5C32 64.8807 30.8807 66 29.5 66C28.1193 66 27 64.8807 27 63.5C27 62.1193 28.1193 61 29.5 61C30.8807 61 32 62.1193 32 63.5Z" fill="#C7D2FE"/>
<path d="M173 79C173 80.6569 171.657 82 170 82C168.343 82 167 80.6569 167 79C167 77.3431 168.343 76 170 76C171.657 76 173 77.3431 173 79Z" fill="#C7D2FE"/>
<path d="M38 24C38 25.6569 36.6569 27 35 27C33.3431 27 32 25.6569 32 24C32 22.3431 33.3431 21 35 21C36.6569 21 38 22.3431 38 24Z" fill="#C7D2FE"/>
<path d="M26 97C26 100.314 23.3137 103 20 103C16.6863 103 14 100.314 14 97C14 93.6863 16.6863 91 20 91C23.3137 91 26 93.6863 26 97Z" fill="#C7D2FE"/>
<path d="M175 29C175 31.7614 172.761 34 170 34C167.239 34 165 31.7614 165 29C165 26.2386 167.239 24 170 24C172.761 24 175 26.2386 175 29Z" fill="#C7D2FE"/>
<path d="M181 103C181 106.314 178.314 109 175 109C171.686 109 169 106.314 169 103C169 99.6863 171.686 97 175 97C178.314 97 181 99.6863 181 103Z" fill="#C7D2FE"/>
<path d="M37.9637 103.565L50.4888 26.457C50.5557 26.0455 50.9111 25.7432 51.328 25.7432H77.5973L78.66 109.484H42.9986C39.8551 109.484 37.4597 106.668 37.9637 103.565Z" fill="#828DF9"/>
<path d="M58.0169 106.341L51.88 25.7432H152.199L159 109.484H61.4077C59.6298 109.484 58.1519 108.114 58.0169 106.341Z" fill="#A6B5FD"/>
<path d="M53.4337 46.1467L58.017 106.341C58.152 108.114 59.6299 109.483 61.4079 109.483H159L153.856 46.1467H53.4337Z" fill="white"/>
<path fill-rule="evenodd" clip-rule="evenodd" d="M68.3763 50.4015C68.8437 50.3562 69.2592 50.6984 69.3044 51.1658L69.6826 55.0734H85.8276L85.4653 51.3296C85.4201 50.8622 85.7623 50.4467 86.2296 50.4015C86.697 50.3562 87.1125 50.6984 87.1577 51.1658L87.5359 55.0734H103.681L103.319 51.3296C103.273 50.8622 103.616 50.4467 104.083 50.4015C104.55 50.3562 104.966 50.6984 105.011 51.1658L105.389 55.0734H121.534L121.172 51.3296C121.127 50.8622 121.469 50.4467 121.936 50.4015C122.404 50.3562 122.819 50.6984 122.864 51.1658L123.243 55.0734H139.388L139.025 51.3296C138.98 50.8622 139.322 50.4467 139.79 50.4015C140.257 50.3562 140.672 50.6984 140.718 51.1658L141.096 55.0734H147.098C147.567 55.0734 147.948 55.454 147.948 55.9235C147.948 56.3931 147.567 56.7737 147.098 56.7737H141.26L142.536 69.9511H147.523C147.992 69.9511 148.373 70.3318 148.373 70.8013C148.373 71.2708 147.992 71.6515 147.523 71.6515H142.7L143.934 84.4038H147.948C148.417 84.4038 148.798 84.7845 148.798 85.254C148.798 85.7235 148.417 86.1041 147.948 86.1041H144.099L145.333 98.8565H148.798C149.268 98.8565 149.648 99.2371 149.648 99.7067C149.648 100.176 149.268 100.557 148.798 100.557H145.497L145.819 103.876C145.864 104.343 145.522 104.758 145.054 104.804C144.587 104.849 144.171 104.507 144.126 104.039L143.789 100.557H127.644L127.965 103.876C128.011 104.343 127.668 104.758 127.201 104.804C126.734 104.849 126.318 104.507 126.273 104.039L125.936 100.557H109.791L110.112 103.876C110.157 104.343 109.815 104.758 109.348 104.804C108.88 104.849 108.465 104.507 108.42 104.039L108.083 100.557H91.9375L92.2587 103.876C92.3039 104.343 91.9617 104.758 91.4944 104.804C91.027 104.849 90.6115 104.507 90.5663 104.039L90.2292 100.557H74.0842L74.4054 103.876C74.4506 104.343 74.1084 104.758 73.6411 104.804C73.1737 104.849 72.7582 104.507 72.713 104.039L72.3759 100.557H66.3328C65.8633 100.557 65.4827 100.176 65.4827 99.7067C65.4827 99.2371 65.8633 98.8565 66.3328 98.8565H72.2114L70.9773 86.1041H65.4827C65.0131 86.1041 64.6325 85.7235 64.6325 85.254C64.6325 84.7845 65.0131 84.4038 65.4827 84.4038H70.8127L69.5786 71.6515H65.0576C64.5881 71.6515 64.2074 71.2708 64.2074 70.8013C64.2074 70.3318 64.5881 69.9511 65.0576 69.9511H69.4141L68.1389 56.7737H64.6325C64.163 56.7737 63.7823 56.3931 63.7823 55.9235C63.7823 55.454 64.163 55.0734 64.6325 55.0734H67.9743L67.612 51.3296C67.5668 50.8622 67.909 50.4467 68.3763 50.4015ZM69.8471 56.7737L71.1224 69.9511H87.2674L85.9922 56.7737H69.8471ZM87.7004 56.7737L88.9757 69.9511H105.121L103.845 56.7737H87.7004ZM105.554 56.7737L106.829 69.9511H122.974L121.699 56.7737H105.554ZM123.407 56.7737L124.682 69.9511H140.827L139.552 56.7737H123.407ZM140.992 71.6515H124.847L126.081 84.4038H142.226L140.992 71.6515ZM142.391 86.1041H126.245L127.48 98.8565H143.625L142.391 86.1041ZM125.771 98.8565L124.537 86.1041H108.392L109.626 98.8565H125.771ZM107.918 98.8565L106.684 86.1041H90.5389L91.773 98.8565H107.918ZM90.0647 98.8565L88.8306 86.1041H72.6856L73.9197 98.8565H90.0647ZM72.521 84.4038H88.6661L87.432 71.6515H71.2869L72.521 84.4038ZM89.1402 71.6515L90.3743 84.4038H106.519L105.285 71.6515H89.1402ZM106.994 71.6515L108.228 84.4038H124.373L123.139 71.6515H106.994Z" fill="#C7D2FE"/>
<path fill-rule="evenodd" clip-rule="evenodd" d="M104.773 49.0411C105.17 48.7904 105.695 48.909 105.946 49.306C107.276 51.4117 108.778 54.8903 108.946 58.5251C109.116 62.2064 107.909 66.0888 103.775 68.7529C101.141 70.4503 98.4857 70.4651 96.3156 69.3915C94.1821 68.336 92.5913 66.2676 91.9228 63.9135C91.2506 61.5461 91.4955 58.8341 93.1105 56.4964C94.7257 54.1584 97.6362 52.3005 102.097 51.4745C102.559 51.389 103.002 51.6939 103.088 52.1556C103.173 52.6173 102.868 53.0609 102.407 53.1464C98.2595 53.9143 95.8034 55.5899 94.5094 57.4629C93.2153 59.3361 93.0086 61.5125 93.5585 63.449C94.1121 65.3988 95.4171 67.0499 97.0695 67.8674C98.6852 68.6668 100.706 68.7082 102.854 67.3237C106.371 65.0569 107.396 61.8192 107.247 58.6036C107.097 55.3416 105.729 52.1465 104.509 50.2139C104.258 49.8169 104.376 49.2919 104.773 49.0411Z" fill="#828DF9"/>
<path d="M75.8971 35.9448C76.9535 35.9448 77.81 35.0884 77.81 34.032C77.81 32.9756 76.9535 32.1191 75.8971 32.1191C74.8407 32.1191 73.9843 32.9756 73.9843 34.032C73.9843 35.0884 74.8407 35.9448 75.8971 35.9448Z" fill="#6265F0"/>
<path d="M130.307 35.9448C131.364 35.9448 132.22 35.0884 132.22 34.032C132.22 32.9756 131.364 32.1191 130.307 32.1191C129.251 32.1191 128.394 32.9756 128.394 34.032C128.394 35.0884 129.251 35.9448 130.307 35.9448Z" fill="#6265F0"/>
<path fill-rule="evenodd" clip-rule="evenodd" d="M78.6602 34.0318C78.6602 35.5578 77.4231 36.7948 75.8972 36.7948C74.3712 36.7948 73.1342 35.5578 73.1342 34.0318C73.1342 32.5058 74.3712 31.2688 75.8972 31.2688C77.4231 31.2688 78.6602 32.5058 78.6602 34.0318ZM75.8972 35.9447C76.9536 35.9447 77.81 35.0883 77.81 34.0318C77.81 32.9754 76.9536 32.119 75.8972 32.119C74.8407 32.119 73.9843 32.9754 73.9843 34.0318C73.9843 35.0883 74.8407 35.9447 75.8972 35.9447Z" fill="#828DF9"/>
<path fill-rule="evenodd" clip-rule="evenodd" d="M133.07 34.0318C133.07 35.5578 131.833 36.7948 130.307 36.7948C128.781 36.7948 127.544 35.5578 127.544 34.0318C127.544 32.5058 128.781 31.2688 130.307 31.2688C131.833 31.2688 133.07 32.5058 133.07 34.0318ZM130.307 35.9447C131.364 35.9447 132.22 35.0883 132.22 34.0318C132.22 32.9754 131.364 32.119 130.307 32.119C129.251 32.119 128.394 32.9754 128.394 34.0318C128.394 35.0883 129.251 35.9447 130.307 35.9447Z" fill="#828DF9"/>
<path fill-rule="evenodd" clip-rule="evenodd" d="M74.2691 22.5112C73.4219 23.8231 73.134 25.4068 73.134 26.3806C73.134 26.8501 72.7534 27.2307 72.2839 27.2307C71.8143 27.2307 71.4337 26.8501 71.4337 26.3806C71.4337 25.1581 71.7778 23.2349 72.8407 21.5889C73.9328 19.8976 75.7811 18.5166 78.6601 18.5166C80.6127 18.5166 82.108 19.6056 83.0464 21.1252C83.9748 22.6288 84.3931 24.5912 84.2639 26.543C84.1344 28.5006 83.4496 30.5171 82.0861 32.1134C80.7103 33.7241 78.6811 34.8608 75.9691 35.0916C75.5013 35.1314 75.0898 34.7844 75.0499 34.3166C75.0101 33.8488 75.3571 33.4372 75.825 33.3974C78.1076 33.2031 79.7182 32.2676 80.7932 31.009C81.8806 29.7361 82.4578 28.0862 82.5673 26.4307C82.6773 24.7694 82.3118 23.1717 81.5997 22.0186C80.8975 20.8814 79.8955 20.2169 78.66 20.2169C76.4267 20.2169 75.0869 21.2447 74.2691 22.5112Z" fill="#828DF9"/>
<path fill-rule="evenodd" clip-rule="evenodd" d="M128.254 22.5112C127.407 23.8231 127.119 25.4068 127.119 26.3806C127.119 26.8501 126.738 27.2307 126.269 27.2307C125.799 27.2307 125.419 26.8501 125.419 26.3806C125.419 25.1581 125.763 23.2349 126.826 21.5889C127.918 19.8976 129.766 18.5166 132.645 18.5166C134.598 18.5166 136.093 19.6056 137.031 21.1252C137.96 22.6288 138.378 24.5912 138.249 26.543C138.119 28.5006 137.435 30.5171 136.071 32.1134C134.695 33.7241 132.666 34.8608 129.954 35.0916C129.486 35.1314 129.075 34.7844 129.035 34.3166C128.995 33.8488 129.342 33.4372 129.81 33.3974C132.093 33.2031 133.703 32.2676 134.778 31.009C135.866 29.7361 136.443 28.0862 136.552 26.4307C136.662 24.7694 136.297 23.1717 135.585 22.0186C134.883 20.8814 133.881 20.2169 132.645 20.2169C130.412 20.2169 129.072 21.2447 128.254 22.5112Z" fill="#828DF9"/>
<g filter="url(#filter0_dd_1241_3323)">
<circle cx="146.523" cy="95.5226" r="23.5226" fill="url(#paint0_linear_1241_3323)"/>
</g>
<path fill-rule="evenodd" clip-rule="evenodd" d="M157.151 88.665C157.756 89.2714 157.736 90.2349 157.106 90.8171L143.928 102.993C143.621 103.277 143.208 103.43 142.782 103.417C142.357 103.404 141.955 103.226 141.667 102.924L135.869 96.8358C135.279 96.2161 135.322 95.2533 135.966 94.6853C136.61 94.1173 137.61 94.1591 138.2 94.7788L142.905 99.7188L154.916 88.6211C155.546 88.0389 156.547 88.0586 157.151 88.665Z" fill="white"/>
<defs>
<filter id="filter0_dd_1241_3323" x="117" y="70" width="59.0452" height="59.0452" filterUnits="userSpaceOnUse" color-interpolation-filters="sRGB">
<feFlood flood-opacity="0" result="BackgroundImageFix"/>
<feColorMatrix in="SourceAlpha" type="matrix" values="0 0 0 0 0 0 0 0 0 0 0 0 0 0 0 0 0 0 127 0" result="hardAlpha"/>
<feMorphology radius="2" operator="erode" in="SourceAlpha" result="effect1_dropShadow_1241_3323"/>
<feOffset dy="2"/>
<feGaussianBlur stdDeviation="2"/>
<feColorMatrix type="matrix" values="0 0 0 0 0.0509804 0 0 0 0 0.0627451 0 0 0 0 0.0901961 0 0 0 0.04 0"/>
<feBlend mode="normal" in2="BackgroundImageFix" result="effect1_dropShadow_1241_3323"/>
<feColorMatrix in="SourceAlpha" type="matrix" values="0 0 0 0 0 0 0 0 0 0 0 0 0 0 0 0 0 0 127 0" result="hardAlpha"/>
<feMorphology radius="2" operator="erode" in="SourceAlpha" result="effect2_dropShadow_1241_3323"/>
<feOffset dy="4"/>
<feGaussianBlur stdDeviation="4"/>
<feColorMatrix type="matrix" values="0 0 0 0 0.0509804 0 0 0 0 0.0627451 0 0 0 0 0.0901961 0 0 0 0.12 0"/>
<feBlend mode="normal" in2="effect1_dropShadow_1241_3323" result="effect2_dropShadow_1241_3323"/>
<feBlend mode="normal" in="SourceGraphic" in2="effect2_dropShadow_1241_3323" result="shape"/>
</filter>
<linearGradient id="paint0_linear_1241_3323" x1="146.523" y1="72" x2="146.523" y2="119.045" gradientUnits="userSpaceOnUse">
<stop stop-color="#6265F0"/>
<stop offset="1" stop-color="#828DF9"/>
</linearGradient>
</defs>
</svg>
