<svg width="196" height="128" viewBox="0 0 196 128" fill="none" xmlns="http://www.w3.org/2000/svg">
<circle cx="98" cy="64" r="64" fill="#C7D2FE"/>
<path d="M32 63.5C32 64.8807 30.8807 66 29.5 66C28.1193 66 27 64.8807 27 63.5C27 62.1193 28.1193 61 29.5 61C30.8807 61 32 62.1193 32 63.5Z" fill="#C7D2FE"/>
<path d="M173 79C173 80.6569 171.657 82 170 82C168.343 82 167 80.6569 167 79C167 77.3431 168.343 76 170 76C171.657 76 173 77.3431 173 79Z" fill="#C7D2FE"/>
<path d="M38 24C38 25.6569 36.6569 27 35 27C33.3431 27 32 25.6569 32 24C32 22.3431 33.3431 21 35 21C36.6569 21 38 22.3431 38 24Z" fill="#C7D2FE"/>
<path d="M26 97C26 100.314 23.3137 103 20 103C16.6863 103 14 100.314 14 97C14 93.6863 16.6863 91 20 91C23.3137 91 26 93.6863 26 97Z" fill="#C7D2FE"/>
<path d="M175 29C175 31.7614 172.761 34 170 34C167.239 34 165 31.7614 165 29C165 26.2386 167.239 24 170 24C172.761 24 175 26.2386 175 29Z" fill="#C7D2FE"/>
<path d="M181 103C181 106.314 178.314 109 175 109C171.686 109 169 106.314 169 103C169 99.6863 171.686 97 175 97C178.314 97 181 99.6863 181 103Z" fill="#C7D2FE"/>
<path d="M114.277 34.0562H47.0593C48.919 23.3906 56.9467 19.7547 60.7281 19.27H127.956C117.879 19.2701 114.93 28.357 114.277 34.0562Z" fill="url(#paint0_linear_1241_3307)"/>
<path d="M120.514 119.474C110.739 119.083 111.336 106.883 112.172 100.682C113.265 92.5621 117.9 83.739 121.029 78.0469C128.666 80.3205 138.384 78.9912 143.334 77.8044C137.661 81.229 137.682 87.3448 137.705 93.822C137.72 98.2696 137.736 102.888 135.909 106.922C132.32 114.849 124.15 118.595 120.514 119.474Z" fill="url(#paint1_linear_1241_3307)"/>
<path d="M143.334 77.8045C146.097 76.4017 151.853 75.1588 152.677 81.3689C153.501 87.5789 152.689 94.0567 152.18 96.5194C150.188 94.2902 145.053 90.78 137.724 90.4383C137.852 85.2694 138.662 80.6245 143.334 77.8045C143.334 77.8045 143.334 77.8045 143.334 77.8045Z" fill="url(#paint2_linear_1241_3307)"/>
<path d="M127.956 19.27C131.18 19.2797 137.095 22.511 134.874 38.2056C133.908 45.0327 132.041 55.3607 123.602 73.2693C123.21 74.1006 122.547 75.3001 121.729 76.7787L121.729 76.7792C118.64 82.3643 113.35 91.9315 112.171 100.682C111.336 106.883 110.739 119.083 120.514 119.474C106.535 121.229 74.7968 123.291 59.6793 117.244C44.5618 111.197 42.3302 96.5494 43.1041 89.9815C43.51 86.2625 45.5486 77.2571 48.4788 70.3062C54.3758 56.3181 59.4118 42.7291 60.6773 34.0563H114.278C114.93 28.3572 117.879 19.2701 127.956 19.27Z" fill="url(#paint3_linear_1241_3307)"/>
<path d="M75.0649 50.8248C75.0649 53.3943 72.982 55.4773 70.4125 55.4773C67.843 55.4773 65.76 53.3943 65.76 50.8248C65.76 48.2553 67.843 46.1724 70.4125 46.1724C72.982 46.1724 75.0649 48.2553 75.0649 50.8248Z" fill="url(#paint4_linear_1241_3307)"/>
<path d="M68.0761 70.2777C68.0761 72.8472 65.9932 74.9301 63.4237 74.9301C60.8542 74.9301 58.7713 72.8472 58.7713 70.2777C58.7713 67.7082 60.8542 65.6253 63.4237 65.6253C65.9932 65.6253 68.0761 67.7082 68.0761 70.2777Z" fill="url(#paint5_linear_1241_3307)"/>
<path d="M62.9195 90.9525C62.9195 93.5219 60.8365 95.6049 58.2671 95.6049C55.6976 95.6049 53.6146 93.5219 53.6146 90.9525C53.6146 88.383 55.6976 86.3 58.2671 86.3C60.8365 86.3 62.9195 88.383 62.9195 90.9525Z" fill="url(#paint6_linear_1241_3307)"/>
<path d="M82.9993 48.8696C82.9993 48.3217 83.4435 47.8775 83.9915 47.8775H115.119C115.667 47.8775 116.111 48.3217 116.111 48.8696V53.2634C116.111 53.8113 115.667 54.2555 115.119 54.2555H83.9915C83.4435 54.2555 82.9993 53.8113 82.9993 53.2634V48.8696Z" fill="url(#paint7_linear_1241_3307)"/>
<path d="M76.0106 68.3225C76.0106 67.7746 76.4547 67.3304 77.0027 67.3304H108.13C108.678 67.3304 109.122 67.7746 109.122 68.3225V72.7163C109.122 73.2642 108.678 73.7084 108.13 73.7084H77.0027C76.4547 73.7084 76.0106 73.2642 76.0106 72.7163V68.3225Z" fill="url(#paint8_linear_1241_3307)"/>
<path d="M70.8539 88.9973C70.8539 88.4493 71.2981 88.0051 71.8461 88.0051H102.973C103.521 88.0051 103.965 88.4493 103.965 88.9973V93.391C103.965 93.939 103.521 94.3832 102.973 94.3832H71.8461C71.2981 94.3832 70.8539 93.939 70.8539 93.391V88.9973Z" fill="url(#paint9_linear_1241_3307)"/>
<defs>
<linearGradient id="paint0_linear_1241_3307" x1="87.5074" y1="19.27" x2="87.5074" y2="34.0562" gradientUnits="userSpaceOnUse">
<stop stop-color="#6265F0"/>
<stop offset="1" stop-color="#DFF1FD"/>
</linearGradient>
<linearGradient id="paint1_linear_1241_3307" x1="131.931" y1="77.8044" x2="119.269" y2="119.474" gradientUnits="userSpaceOnUse">
<stop stop-color="#BEDAFD"/>
<stop offset="1" stop-color="#828DF9"/>
</linearGradient>
<linearGradient id="paint2_linear_1241_3307" x1="145.377" y1="76.6619" x2="145.377" y2="96.5194" gradientUnits="userSpaceOnUse">
<stop stop-color="#6265F0"/>
<stop offset="1" stop-color="#BEDAFD"/>
</linearGradient>
<linearGradient id="paint3_linear_1241_3307" x1="89.166" y1="19.27" x2="89.166" y2="121.285" gradientUnits="userSpaceOnUse">
<stop stop-color="#6265F0"/>
<stop offset="1" stop-color="#BEDAFD"/>
</linearGradient>
<linearGradient id="paint4_linear_1241_3307" x1="84.8627" y1="46.1724" x2="84.8627" y2="95.6049" gradientUnits="userSpaceOnUse">
<stop stop-color="#BEDAFD"/>
<stop offset="1" stop-color="white"/>
</linearGradient>
<linearGradient id="paint5_linear_1241_3307" x1="84.8627" y1="46.1724" x2="84.8627" y2="95.6049" gradientUnits="userSpaceOnUse">
<stop stop-color="#BEDAFD"/>
<stop offset="1" stop-color="white"/>
</linearGradient>
<linearGradient id="paint6_linear_1241_3307" x1="84.8627" y1="46.1724" x2="84.8627" y2="95.6049" gradientUnits="userSpaceOnUse">
<stop stop-color="#BEDAFD"/>
<stop offset="1" stop-color="white"/>
</linearGradient>
<linearGradient id="paint7_linear_1241_3307" x1="84.8627" y1="46.1724" x2="84.8627" y2="95.6049" gradientUnits="userSpaceOnUse">
<stop stop-color="#BEDAFD"/>
<stop offset="1" stop-color="white"/>
</linearGradient>
<linearGradient id="paint8_linear_1241_3307" x1="84.8627" y1="46.1724" x2="84.8627" y2="95.6049" gradientUnits="userSpaceOnUse">
<stop stop-color="#BEDAFD"/>
<stop offset="1" stop-color="white"/>
</linearGradient>
<linearGradient id="paint9_linear_1241_3307" x1="84.8627" y1="46.1724" x2="84.8627" y2="95.6049" gradientUnits="userSpaceOnUse">
<stop stop-color="#BEDAFD"/>
<stop offset="1" stop-color="white"/>
</linearGradient>
</defs>
</svg>
