<svg width="80" height="80" viewBox="0 0 80 80" fill="none" xmlns="http://www.w3.org/2000/svg">
<rect width="80" height="80" rx="40" fill="#EAFAC9"/>
<path d="M39.9984 53.358C38.1575 53.358 36.5211 53.0426 35.0893 52.4119C33.666 51.7812 32.541 50.9034 31.7143 49.7784C30.8876 48.6534 30.4487 47.3537 30.3975 45.8793H35.2044C35.247 46.5866 35.4814 47.2045 35.9075 47.733C36.3336 48.2528 36.9004 48.6577 37.6078 48.9474C38.3152 49.2372 39.1078 49.3821 39.9856 49.3821C40.9231 49.3821 41.7541 49.2202 42.4785 48.8963C43.2029 48.5639 43.7697 48.1037 44.1788 47.5156C44.5879 46.9276 44.7882 46.25 44.7797 45.483C44.7882 44.6903 44.5836 43.9915 44.166 43.3864C43.7484 42.7812 43.1433 42.3082 42.3507 41.9673C41.5666 41.6264 40.6206 41.456 39.5126 41.456H37.1987V37.7997H39.5126C40.4245 37.7997 41.2214 37.642 41.9032 37.3267C42.5936 37.0114 43.1348 36.5682 43.5268 35.9972C43.9189 35.4176 44.1106 34.7486 44.1021 33.9901C44.1106 33.2486 43.9444 32.6051 43.6035 32.0597C43.2711 31.5057 42.7981 31.0753 42.1845 30.7685C41.5794 30.4616 40.8677 30.3082 40.0495 30.3082C39.2484 30.3082 38.5069 30.4531 37.8251 30.7429C37.1433 31.0327 36.5936 31.446 36.176 31.983C35.7583 32.5114 35.5368 33.142 35.5112 33.875H30.9473C30.9814 32.4091 31.4032 31.1222 32.2129 30.0142C33.0311 28.8977 34.122 28.0284 35.4856 27.4062C36.8493 26.7756 38.3791 26.4602 40.0751 26.4602C41.8223 26.4602 43.3393 26.7884 44.6262 27.4446C45.9217 28.0923 46.9231 28.9659 47.6305 30.0653C48.3379 31.1648 48.6916 32.3793 48.6916 33.7088C48.7001 35.1832 48.2654 36.419 47.3876 37.4162C46.5183 38.4134 45.3762 39.0653 43.9615 39.3722V39.5767C45.8024 39.8324 47.2129 40.5142 48.193 41.6222C49.1816 42.7216 49.6717 44.0895 49.6632 45.7259C49.6632 47.1918 49.2456 48.5043 48.4103 49.6634C47.5836 50.8139 46.4416 51.7173 44.9842 52.3736C43.5353 53.0298 41.8734 53.358 39.9984 53.358Z" fill="#0D1017"/>
</svg>
