<svg width="80" height="80" viewBox="0 0 80 80" fill="none" xmlns="http://www.w3.org/2000/svg">
<rect width="80" height="80" rx="40" fill="#FDCCD2"/>
<path d="M31.147 53V49.5739L40.2365 40.6634C41.1058 39.7855 41.8303 39.0057 42.4098 38.3239C42.9893 37.642 43.424 36.9815 43.7138 36.3423C44.0036 35.7031 44.1484 35.0213 44.1484 34.2969C44.1484 33.4702 43.9609 32.7628 43.5859 32.1747C43.2109 31.5781 42.6953 31.1179 42.0391 30.794C41.3828 30.4702 40.6371 30.3082 39.8018 30.3082C38.9411 30.3082 38.1868 30.4872 37.5391 30.8452C36.8913 31.1946 36.3885 31.6932 36.0305 32.3409C35.6811 32.9886 35.5064 33.7599 35.5064 34.6548H30.9936C30.9936 32.9929 31.3729 31.5483 32.1314 30.321C32.8899 29.0937 33.9339 28.1435 35.2635 27.4702C36.6016 26.7969 38.1357 26.4602 39.8658 26.4602C41.6214 26.4602 43.1641 26.7884 44.4936 27.4446C45.8232 28.1009 46.8544 29 47.5874 30.142C48.3288 31.2841 48.6996 32.5881 48.6996 34.054C48.6996 35.0341 48.5121 35.9972 48.1371 36.9432C47.7621 37.8892 47.1016 38.9375 46.1555 40.0881C45.218 41.2386 43.9013 42.6321 42.2053 44.2685L37.6925 48.858V49.0369H49.0959V53H31.147Z" fill="#0D1017"/>
</svg>
