<svg xmlns="http://www.w3.org/2000/svg" viewBox="0 0 876.54 292.18">
  <defs>
    <style>
      .cls-1 {
        fill: #005fa1;
      }

      .cls-2 {
        fill: #fff;
      }
    </style>
  </defs>
  <g id="Layer_2" data-name="Layer 2">
    <g id="Layer_1-2" data-name="Layer 1">
      <g>
        <rect class="cls-1" width="876.54" height="292.18"/>
        <g>
          <g>
            <path class="cls-2" d="M54.6,224.08a11.16,11.16,0,0,1-1.24,5.34,8.77,8.77,0,0,1-3.54,3.6,10.79,10.79,0,0,1-5.36,1.28h-2.2v9.42h-7.2v-29.3h9.8q5.05,0,7.4,2.35T54.6,224.08Zm-7.62.31a3.86,3.86,0,0,0-.85-2.72,3.25,3.25,0,0,0-2.5-.92H42.26V228h1.62Q47,228,47,224.39Z"/>
            <path class="cls-2" d="M72.45,243.72l-1-5.39H64.26l-1.13,5.39H55.34l8.24-29.3h8.94l7.75,29.3Zm-4.54-22.93h-.16c0,.33-.1.87-.24,1.62s-.8,4-2,9.64h4.57l-1.66-8A29.19,29.19,0,0,1,67.91,220.79Z"/>
            <path class="cls-2" d="M95.48,243.72l-1.78-6.31a8.6,8.6,0,0,0-1.35-2.93,2.31,2.31,0,0,0-1.79-1.06h-.28v10.3H83.07v-29.3h9.58q5,0,7.41,2c1.6,1.34,2.39,3.36,2.39,6a8.82,8.82,0,0,1-1.39,5.07,7.82,7.82,0,0,1-4.14,3v.08a5.67,5.67,0,0,1,2.52,1.86,12,12,0,0,1,1.81,3.82l2.35,7.46Zm-.68-20a3.45,3.45,0,0,0-.74-2.33,2.83,2.83,0,0,0-2.3-.86H90.28v6.7h1.3a2.94,2.94,0,0,0,2.33-1A3.67,3.67,0,0,0,94.8,223.72Z"/>
            <path class="cls-2" d="M106.37,243.72v-29.3h7.21v22.39h8.24v6.91Z"/>
            <path class="cls-2" d="M124.85,243.72v-29.3h7.21v29.3Z"/>
            <path class="cls-2" d="M151.76,243.72l-1.06-5.39h-7.13l-1.14,5.39h-7.79l8.24-29.3h8.94l7.76,29.3Zm-4.54-22.93h-.17c0,.33-.1.87-.23,1.62s-.81,4-2,9.64h4.57l-1.67-8A31.5,31.5,0,0,1,147.22,220.79Z"/>
            <path class="cls-2" d="M184.28,243.72V227.66c0-1.51,0-3.18.12-5l0-1.35h-.2c-.36,2.31-.63,3.9-.82,4.79l-3.52,17.61h-6.77l-3.69-17.41c-.1-.44-.36-2.1-.78-5h-.2q.22,6.87.23,8.59v13.81h-6.32v-29.3h10.79l3.29,15.92c.07.32.18,1,.3,2s.21,1.77.25,2.32h.1c.12-1.24.31-2.71.58-4.4l3.07-15.83h10.62v29.3Z"/>
            <path class="cls-2" d="M196.09,243.72v-29.3H211v6.9h-7.69v4.27h7.22v6.91h-7.22v4.31h8.24v6.91Z"/>
            <path class="cls-2" d="M231.65,243.72l-8.44-14.14a34.18,34.18,0,0,1-1.64-3h-.07c.07,1.44.1,3.06.1,4.86v12.3h-6.67v-29.3h6.81l8.09,13.44.36.64c.15.24.29.49.44.75l.41.76a6.65,6.65,0,0,1,.29.65h.07c-.07-.6-.1-1.63-.1-3.1V214.42H238v29.3Z"/>
            <path class="cls-2" d="M254.76,221.32v22.4h-7.24v-22.4h-6.68v-6.9h20.69v6.9Z"/>
            <path class="cls-2" d="M279.4,243.72l-1-5.39h-7.14l-1.14,5.39h-7.79l8.24-29.3h8.94l7.76,29.3Zm-4.54-22.93h-.17c0,.33-.1.87-.23,1.62s-.81,4-2,9.64H277l-1.67-8A31.5,31.5,0,0,1,274.86,220.79Z"/>
            <path class="cls-2" d="M302.43,243.72l-1.79-6.31a8.42,8.42,0,0,0-1.34-2.93,2.33,2.33,0,0,0-1.79-1.06h-.28v10.3H290v-29.3h9.57q5,0,7.42,2c1.59,1.34,2.39,3.36,2.39,6a8.82,8.82,0,0,1-1.39,5.07,7.8,7.8,0,0,1-4.15,3v.08a5.64,5.64,0,0,1,2.53,1.86,12.27,12.27,0,0,1,1.81,3.82l2.35,7.46Zm-.68-20a3.45,3.45,0,0,0-.74-2.33,2.83,2.83,0,0,0-2.3-.86h-1.48v6.7h1.3a3,3,0,0,0,2.33-1A3.67,3.67,0,0,0,301.75,223.72Z"/>
            <path class="cls-2" d="M325.55,233.54v10.18h-7.21V233.67L311,214.42h8.27l2.59,9.21a15,15,0,0,1,.37,1.64q.1.69.24,1.41h.07a22.92,22.92,0,0,1,.48-2.88l2.56-9.38h7.62Z"/>
            <path class="cls-2" d="M360,243.72,359,238.33h-7.14l-1.13,5.39h-7.79l8.24-29.3h8.94l7.76,29.3Zm-4.53-22.93h-.17c0,.33-.1.87-.23,1.62s-.81,4-2,9.64h4.57l-1.67-8A31.5,31.5,0,0,1,355.47,220.79Z"/>
            <path class="cls-2" d="M387.24,234.85a9.84,9.84,0,0,1-1.28,5.09,7.88,7.88,0,0,1-3.57,3.23,13.13,13.13,0,0,1-5.54,1.06,15.27,15.27,0,0,1-6.87-1.55v-8a12.76,12.76,0,0,0,3.32,2.17,8.08,8.08,0,0,0,3.38.83,2.88,2.88,0,0,0,1.84-.52,1.84,1.84,0,0,0,.65-1.52,2.37,2.37,0,0,0-.33-1.26,3.33,3.33,0,0,0-1-1,17.85,17.85,0,0,0-2.45-1.29q-5.76-2.72-5.77-8.78a9,9,0,0,1,2.64-6.8,9.73,9.73,0,0,1,7.07-2.54,20.38,20.38,0,0,1,2.3.12,17.76,17.76,0,0,1,1.91.31,24.13,24.13,0,0,1,2.41.69v7.46a10.63,10.63,0,0,0-5.94-2,3.11,3.11,0,0,0-1.93.55,1.78,1.78,0,0,0-.73,1.51,2.06,2.06,0,0,0,.59,1.52,10.56,10.56,0,0,0,2.47,1.57,13.71,13.71,0,0,1,5.27,4A8.77,8.77,0,0,1,387.24,234.85Z"/>
            <path class="cls-2" d="M406.77,234.85a9.84,9.84,0,0,1-1.28,5.09,7.88,7.88,0,0,1-3.57,3.23,13.13,13.13,0,0,1-5.54,1.06,15.27,15.27,0,0,1-6.87-1.55v-8a12.76,12.76,0,0,0,3.32,2.17,8.08,8.08,0,0,0,3.38.83,2.88,2.88,0,0,0,1.84-.52,1.84,1.84,0,0,0,.65-1.52,2.37,2.37,0,0,0-.33-1.26,3.33,3.33,0,0,0-1-1,17.85,17.85,0,0,0-2.45-1.29q-5.76-2.72-5.77-8.78a9,9,0,0,1,2.64-6.8,9.73,9.73,0,0,1,7.07-2.54,20.26,20.26,0,0,1,2.3.12,17.76,17.76,0,0,1,1.91.31,23.4,23.4,0,0,1,2.41.69v7.46a10.62,10.62,0,0,0-5.93-2,3.12,3.12,0,0,0-1.94.55,1.78,1.78,0,0,0-.73,1.51,2.06,2.06,0,0,0,.59,1.52,10.46,10.46,0,0,0,2.48,1.57,13.75,13.75,0,0,1,5.26,4A8.77,8.77,0,0,1,406.77,234.85Z"/>
            <path class="cls-2" d="M409.69,243.72v-29.3h14.89v6.9h-7.69v4.27h7.23v6.91h-7.23v4.31h8.24v6.91Z"/>
            <path class="cls-2" d="M450.43,243.72V227.66c0-1.51,0-3.18.12-5l.05-1.35h-.2c-.35,2.31-.63,3.9-.81,4.79l-3.52,17.61h-6.78l-3.68-17.41c-.1-.44-.36-2.1-.79-5h-.2q.24,6.87.24,8.59v13.81h-6.32v-29.3h10.79l3.28,15.92c.08.32.18,1,.31,2s.21,1.77.24,2.32h.1c.13-1.24.32-2.71.59-4.4l3.07-15.83h10.62v29.3Z"/>
            <path class="cls-2" d="M482.67,234.73a8.75,8.75,0,0,1-2.46,6.65q-2.47,2.34-7.06,2.34H462.24v-29.3H472.4q9.53,0,9.52,7.09a6.53,6.53,0,0,1-.6,2.81,6.24,6.24,0,0,1-1.82,2.24,6.9,6.9,0,0,1-2.7,1.3V228a6.65,6.65,0,0,1,3.06,1.23,6.78,6.78,0,0,1,2.08,2.47A6.87,6.87,0,0,1,482.67,234.73ZM474.27,223q0-2.72-3.49-2.72h-1.33v5.54h2.08a2.61,2.61,0,0,0,2-.79A2.78,2.78,0,0,0,474.27,223Zm.75,11.65a3,3,0,0,0-.75-2.09,2.58,2.58,0,0,0-2-.81h-2.83v6h2.4a3.19,3.19,0,0,0,2.32-.82A3,3,0,0,0,475,234.69Z"/>
            <path class="cls-2" d="M485.84,243.72v-29.3h7.21v22.39h8.24v6.91Z"/>
            <path class="cls-2" d="M516.55,233.54v10.18h-7.21V233.67L502,214.42h8.27l2.59,9.21a15.32,15.32,0,0,1,.38,1.64q.1.69.24,1.41h.06a22.6,22.6,0,0,1,.49-2.88l2.55-9.38h7.62Z"/>
            <path class="cls-2" d="M558.76,229a19.34,19.34,0,0,1-1.55,7.9,12.64,12.64,0,0,1-4.34,5.41,11,11,0,0,1-12.36.06,12.22,12.22,0,0,1-4.3-5.25,18.37,18.37,0,0,1-1.53-7.65,19.9,19.9,0,0,1,1.55-8.05,12.6,12.6,0,0,1,4.35-5.53,10.88,10.88,0,0,1,6.37-1.95,10.56,10.56,0,0,1,6.15,1.87,12,12,0,0,1,4.19,5.33A20,20,0,0,1,558.76,229Zm-7.64.24a12.08,12.08,0,0,0-1.13-5.7,3.44,3.44,0,0,0-3.1-2.08,3.72,3.72,0,0,0-3.36,2,11.06,11.06,0,0,0-1.2,5.66,10.91,10.91,0,0,0,1.2,5.58,3.63,3.63,0,0,0,3.24,2,3.29,3.29,0,0,0,2.25-.9,5.75,5.75,0,0,0,1.55-2.57A12.78,12.78,0,0,0,551.12,229.23Z"/>
            <path class="cls-2" d="M569.35,221.32v5.28h7.11v6.9h-7.11v10.22h-7.2v-29.3h15v6.9Z"/>
            <path class="cls-2" d="M602.21,221.32v22.4H595v-22.4h-6.69v-6.9H609v6.9Z"/>
            <path class="cls-2" d="M632.7,230.34q0,7-2.63,10.47t-8.1,3.42q-5.1,0-7.74-3.42t-2.65-10.31V214.42h7.24v16.41a9,9,0,0,0,.86,4.34,2.79,2.79,0,0,0,4.92.09,8.49,8.49,0,0,0,.84-4.23V214.42h7.26Z"/>
            <path class="cls-2" d="M649.54,243.72l-1.78-6.31a8.6,8.6,0,0,0-1.34-2.93,2.33,2.33,0,0,0-1.8-1.06h-.28v10.3h-7.21v-29.3h9.58c3.34,0,5.82.67,7.41,2s2.39,3.36,2.39,6a8.82,8.82,0,0,1-1.39,5.07,7.82,7.82,0,0,1-4.14,3v.08a5.67,5.67,0,0,1,2.52,1.86,12,12,0,0,1,1.81,3.82l2.36,7.46Zm-.68-20a3.49,3.49,0,0,0-.73-2.33,2.86,2.86,0,0,0-2.31-.86h-1.48v6.7h1.3a2.93,2.93,0,0,0,2.33-1A3.67,3.67,0,0,0,648.86,223.72Z"/>
            <path class="cls-2" d="M673.66,243.72l-5.3-12.38a15.33,15.33,0,0,1-.64-2h-.08v14.41h-7.21v-29.3h7.21v13.93h.08a17.37,17.37,0,0,1,.72-2l4.77-11.89h8.54l-6.79,14,7.44,15.33Z"/>
            <path class="cls-2" d="M684,243.72v-29.3h7.21v29.3Z"/>
            <path class="cls-2" d="M713.71,242.92a16.76,16.76,0,0,1-6.86,1.31,11.82,11.82,0,0,1-6.59-1.79,11.38,11.38,0,0,1-4.23-5.08,18.73,18.73,0,0,1-1.45-7.62,19.82,19.82,0,0,1,1.63-8.25,12.82,12.82,0,0,1,4.62-5.59,12.13,12.13,0,0,1,6.87-2,19.6,19.6,0,0,1,6,.92V223a7.68,7.68,0,0,0-2.39-1.14,9.59,9.59,0,0,0-2.8-.41,5.68,5.68,0,0,0-4.63,2.06,8.56,8.56,0,0,0-1.69,5.6,8.42,8.42,0,0,0,1.69,5.55,5.61,5.61,0,0,0,4.53,2,10.09,10.09,0,0,0,5.29-1.63Z"/>
            <path class="cls-2" d="M743.53,234.85a9.84,9.84,0,0,1-1.28,5.09,7.85,7.85,0,0,1-3.58,3.23,13.08,13.08,0,0,1-5.53,1.06,15.28,15.28,0,0,1-6.88-1.55v-8a13.11,13.11,0,0,0,3.32,2.17,8.13,8.13,0,0,0,3.39.83,2.83,2.83,0,0,0,1.83-.52,1.81,1.81,0,0,0,.65-1.52,2.36,2.36,0,0,0-.32-1.26,3.58,3.58,0,0,0-1-1,17.85,17.85,0,0,0-2.45-1.29q-5.78-2.72-5.77-8.78a9,9,0,0,1,2.64-6.8,9.71,9.71,0,0,1,7.07-2.54,20.38,20.38,0,0,1,2.3.12,17.76,17.76,0,0,1,1.91.31,24.13,24.13,0,0,1,2.41.69v7.46a10.63,10.63,0,0,0-5.94-2,3.11,3.11,0,0,0-1.93.55,1.79,1.79,0,0,0-.74,1.51,2.07,2.07,0,0,0,.6,1.52,10.56,10.56,0,0,0,2.47,1.57,13.59,13.59,0,0,1,5.26,4A8.77,8.77,0,0,1,743.53,234.85Z"/>
            <path class="cls-2" d="M758.54,221.32v22.4H751.3v-22.4h-6.69v-6.9h20.7v6.9Z"/>
            <path class="cls-2" d="M783.17,243.72l-1-5.39H775l-1.13,5.39h-7.79l8.24-29.3h8.94l7.75,29.3Zm-4.53-22.93h-.17c0,.33-.1.87-.23,1.62s-.81,4-2,9.64h4.57l-1.67-8A29,29,0,0,1,778.64,220.79Z"/>
            <path class="cls-2" d="M805.89,221.32v22.4h-7.24v-22.4H792v-6.9h20.7v6.9Z"/>
            <path class="cls-2" d="M815.53,243.72v-29.3h14.89v6.9h-7.69v4.27H830v6.91h-7.23v4.31H831v6.91Z"/>
            <path class="cls-2" d="M851,234.85a9.84,9.84,0,0,1-1.28,5.09,7.85,7.85,0,0,1-3.58,3.23,13.08,13.08,0,0,1-5.53,1.06,15.28,15.28,0,0,1-6.88-1.55v-8a13.11,13.11,0,0,0,3.32,2.17,8.13,8.13,0,0,0,3.39.83,2.83,2.83,0,0,0,1.83-.52,1.81,1.81,0,0,0,.65-1.52,2.36,2.36,0,0,0-.32-1.26,3.58,3.58,0,0,0-1-1,17.85,17.85,0,0,0-2.45-1.29q-5.77-2.72-5.77-8.78a9,9,0,0,1,2.64-6.8,9.71,9.71,0,0,1,7.07-2.54,20.38,20.38,0,0,1,2.3.12,17.76,17.76,0,0,1,1.91.31,24.13,24.13,0,0,1,2.41.69v7.46a10.63,10.63,0,0,0-5.94-2,3.11,3.11,0,0,0-1.93.55,1.79,1.79,0,0,0-.74,1.51,2.07,2.07,0,0,0,.6,1.52,10.56,10.56,0,0,0,2.47,1.57,13.59,13.59,0,0,1,5.26,4A8.77,8.77,0,0,1,851,234.85Z"/>
          </g>
          <g>
            <path class="cls-2" d="M145.89,48V78.4h-40.4v93.43H65.87V78.4H25.55V48Z"/>
            <path class="cls-2" d="M286.36,48v73.87c0,9.52-2.33,21.12-7.54,29.25-11.47,18-29.38,22.84-50.72,22.84-32.43,0-41.75-6.23-51.25-15.58-12.91-12.63-13.27-32.87-13.27-36.51V48h39.61v75.61c0,9.17,3.76,21.63,21.87,21.63,18.45,0,21.69-13.15,21.69-21.63V48Z"/>
            <path class="cls-2" d="M312.85,48H379c14.69,0,28.85.35,39.07,9.34,8.61,7.61,10.57,17.65,10.57,25.09,0,12.4-5,29.07-30.82,34.61v.34c5.37,1.56,9.64,3.28,12.91,6.75s7,7.44,9.31,11.94l19,35.81H394.22l-21-37.89c-3.42-6.06-7.18-12.28-17.22-12.28h-3.58v50.17H312.85Zm39.61,50.17h17.2a26.58,26.58,0,0,0,5-.52c7.52-1.38,8.05-1.72,10.4-3.46A11.81,11.81,0,0,0,389,85.31c0-12.25-11.77-12.25-18.66-12.25h-17.9Z"/>
            <path class="cls-2" d="M491.9,48V94.78L533.49,48h52.69L539.36,94.67l48.93,77.12H539.4L512.34,121,491.9,141.56v30.3H452.29V48Z"/>
            <path class="cls-2" d="M667.54,48c26.53,0,42.85,11.76,42.85,38.07,0,32.69-24.92,39.78-47.32,39.78H641.2v46H601.59V48ZM641.2,100.72h9.64c2,0,10.4,0,14.51-2.42a13.76,13.76,0,0,0,6.46-11.25A15.82,15.82,0,0,0,668,77.41c-1.79-2.07-4.48-4.32-15.59-4.32H641.16Z"/>
            <path class="cls-2" d="M749.08,151.24,743,171.9H702.26L750.46,48h43.37L842,171.9H800.71l-6.45-20.66ZM786,124.59,772,80.12h-.36l-14,44.47Z"/>
          </g>
        </g>
      </g>
    </g>
  </g>
</svg>
